PathFileType	4	(X/Y/Z)	C:\Users\WrightLab\Desktop\Jo\P1_boxCal4.trc
DataRate	CameraRate	NumFrames	NumMarkers	Units	OrigDataRate	OrigDataStartFrame	OrigNumFrames
100.00	100.00	      21	19	mm	100.00	151	      1205
Frame#	Time	Headset_Front			Headset_Back			Headset_Left			Headset_Right			Left_Shoulder			Right_Shoulder			Sternum			C7			Left Elbow			Right Elbow			Left Wrist			Right Wrist			Left ASIS			Right ASIS			S2			Left Knee			Right Knee			Left Ankle			Right Ankle			
		X1	Y1	Z1	X2	Y2	Z2	X3	Y3	Z3	X4	Y4	Z4	X5	Y5	Z5	X6	Y6	Z6	X7	Y7	Z7	X8	Y8	Z8	X9	Y9	Z9	X10	Y10	Z10	X11	Y11	Z11	X12	Y12	Z12	X13	Y13	Z13	X14	Y14	Z14	X15	Y15	Z15	X16	Y16	Z16	X17	Y17	Z17	X18	Y18	Z18	X19	Y19	Z19	

151	1.500							-128.08540	927.30695	-1765.90063	-670.39557	956.32574	-1778.75049							-389.83994	711.47235	-2091.59521	-592.71906	1223.74609	-1716.70410							-159.29324	418.67126	-1693.63818	-464.32846	39.23087	-1796.67249	-528.71979	395.10553	-1726.95081										-406.35263	968.76959	-1141.22314	-70.86923	740.45776	-1667.64917				
152	1.510							-127.16676	928.00470	-1764.50439													-592.46216	1223.81213	-1716.19165							-158.68387	419.47739	-1698.44543	-464.34540	39.15247	-1796.74792	-528.42926	395.64575	-1725.56458										-405.34354	968.11517	-1143.80737	-70.68577	741.37891	-1665.11292				
153	1.520							-126.31906	928.68634	-1763.39368	-669.54431	957.35797	-1780.18274							-387.99203	713.84381	-2088.11060	-592.20819	1223.85400	-1715.76843							-158.56845	419.40060	-1702.05103	-464.30743	39.14943	-1796.53491	-527.02094	395.23236	-1727.43738										-405.04678	968.62823	-1142.39551	-70.29582	742.18127	-1662.33728				
154	1.530							-125.34560	929.13977	-1762.03845	-669.20404	957.65668	-1780.69128							-386.64542	712.81238	-2089.79272	-591.92706	1223.87036	-1715.40698							-158.78488	419.11249	-1704.00330	-464.18173	39.26989	-1795.86133	-525.96710	395.21704	-1727.86621										-404.11371	968.87292	-1143.24329	-70.53159	742.27448	-1658.46753				
155	1.540							-124.38730	929.53625	-1760.79016	-668.85565	957.99402	-1781.51721							-385.14035	713.73309	-2092.07129	-591.60803	1223.83545	-1715.18787							-158.05762	420.04715	-1707.49939	-463.87909	39.69931	-1794.27417	-524.86017	393.87939	-1730.11243										-403.72189	969.37604	-1141.34180	-70.84892	743.33405	-1655.11157				
156	1.550							-123.36336	929.45032	-1759.39490	-668.59949	958.01428	-1782.03503							-384.60226	714.46301	-2089.00830	-591.27881	1223.74756	-1715.14722							-158.02390	419.84393	-1708.43018	-461.32047	35.68717	-1801.50220	-523.20996	392.20145	-1733.34766										-401.91086	968.05212	-1145.32422	-71.07658	743.59509	-1652.23291				
157	1.560							-122.27386	929.51331	-1758.35596	-668.35309	957.81677	-1782.38586							-382.82440	711.95703	-2093.31763	-591.00464	1223.61316	-1715.33191							-157.95480	419.68832	-1709.03857	-460.58594	35.52097	-1796.88574	-521.64435	391.77484	-1734.40784										-400.72925	967.80804	-1143.79187	-70.67190	744.15057	-1649.98303				
158	1.570							-121.26174	929.31573	-1757.56372	-668.21631	957.23102	-1782.39270							-382.27994	712.22327	-2090.12842	-590.48944	1222.84521	-1714.84424							-157.07120	419.79108	-1709.70068	-460.09238	31.93518	-1794.40662	-517.73114	389.47690	-1735.31799										-400.01706	967.15393	-1143.30774	-70.43420	743.53522	-1646.66882				
159	1.580							-120.12894	928.66187	-1756.86499	-668.26721	956.26721	-1782.00647							-381.19946	710.57928	-2090.68188	-590.35443	1221.66638	-1713.58948							-156.34315	419.80728	-1708.13232	-459.86465	31.99649	-1793.14282	-516.20300	389.77579	-1731.07263										-399.91406	966.49438	-1141.77795	-69.28214	743.80273	-1644.24670				
160	1.590							-118.87352	927.35834	-1755.39734	-668.48291	954.77197	-1781.22717							-380.07458	707.41937	-2094.34766	-590.27252	1219.86011	-1711.52771							-155.17769	418.86353	-1707.41907	-459.72101	32.12278	-1792.36707	-514.16724	386.07285	-1736.28809										-399.75406	965.70874	-1139.93237	-69.33726	743.06818	-1640.39392				
161	1.600							-117.63670	925.96271	-1754.55884	-668.85046	953.25995	-1780.40894							-379.82825	707.00739	-2092.80420	-590.49261	1218.06140	-1709.34045							-154.09554	418.07080	-1705.13342	-459.74869	32.07106	-1792.50952	-511.91110	382.09189	-1739.33533										-398.80496	963.00720	-1142.39380	-69.69928	741.51843	-1635.70532				
162	1.610							-116.38632	924.40942	-1753.74219	-669.36029	952.04053	-1780.05859							-379.55563	706.54724	-2091.08569	-590.50635	1217.80896	-1710.25317							-153.22562	417.32440	-1702.40771	-459.89844	31.70749	-1793.25952	-510.30618	384.38879	-1731.39636										-398.88889	961.77972	-1142.00098	-69.09930	741.35815	-1634.61365				
163	1.620							-115.33022	922.77588	-1753.12610	-669.64905	950.81915	-1779.11865							-379.16089	704.08490	-2091.14990	-590.29791	1216.05310	-1708.30981							-152.63730	416.29578	-1697.48389	-460.00262	31.39919	-1793.76709	-508.54532	383.72556	-1730.25415													-68.58661	740.38538	-1632.43872	-378.55557	935.68774	-1241.34338	
164	1.630							-114.38911	920.94824	-1752.19604	-669.93579	949.25018	-1777.09619							-377.69833	700.79523	-2097.23438	-590.31653	1214.37756	-1705.90149							-150.66115	414.61267	-1692.68152	-460.10626	31.05762	-1794.26282	-508.47525	383.74878	-1729.88916													-67.87704	739.96960	-1629.92004	-379.21539	935.01337	-1239.87598	
165	1.640							-113.79552	919.66473	-1751.92419	-670.19983	948.02130	-1774.93237							-376.80948	698.48383	-2096.41382	-590.51605	1212.78625	-1702.96826							-149.67711	415.09082	-1688.02393	-460.20691	30.77095	-1794.75562	-509.75534	383.37967	-1732.99084													-67.83522	740.13165	-1629.45105	-379.91324	934.45660	-1238.31348	
166	1.650							-113.63266	918.67578	-1751.66589	-670.29456	947.24347	-1772.96313							-376.47678	698.56067	-2094.43091	-590.36877	1212.78101	-1702.83093							-149.89993	415.28317	-1681.80237	-460.35953	29.85422	-1794.42969	-512.66779	382.79373	-1733.68188													-68.51350	739.37927	-1626.41565	-380.59158	933.86951	-1236.52490	
167	1.660							-113.94028	918.07410	-1751.87561	-670.26105	947.01501	-1771.60425							-375.69019	697.62866	-2094.56079	-590.15955	1212.84937	-1702.36694							-149.00758	414.96320	-1673.44531	-460.42163	29.66898	-1794.73181	-514.30286	382.70169	-1732.63220										-128.14973	71.49187	-1807.82739	-68.38036	739.52582	-1625.76208				
168	1.670							-114.65209	917.65137	-1752.30396	-670.23407	946.11584	-1768.69031							-374.69968	696.73096	-2096.87866	-589.63489	1212.37939	-1700.81763							-148.36925	416.04745	-1664.85522	-460.37714	29.63437	-1794.47266	-516.91791	385.99826	-1725.76660										-129.21967	73.03078	-1804.33057	-68.43195	739.51257	-1625.91650				
169	1.680										-670.04309	944.76038	-1764.64355							-374.59409	696.91846	-2096.28003	-589.40955	1211.59998	-1698.06995							-148.37967	416.29724	-1655.23132	-460.82248	29.89678	-1792.02869	-518.70447	384.44943	-1729.70435										-129.45683	75.19981	-1799.85571	-68.46715	740.09747	-1627.17358				
170	1.690							-395.89102	954.01532	-1147.63806	-669.76941	943.98962	-1761.17236							-374.29028	697.49933	-2094.56543	-589.11035	1211.78369	-1697.10291							-147.68134	418.69876	-1647.41846	-460.82880	29.85962	-1792.05481	-521.74408	384.20016	-1729.36511										-129.81950	80.12627	-1796.32397	-68.69034	739.95776	-1628.02917				
171	1.700										-669.39948	943.61182	-1758.40063							-373.73230	698.42944	-2091.38989	-589.06506	1211.19739	-1694.53809							-148.24660	420.37732	-1639.12317	-460.78183	29.92605	-1791.80762	-523.77948	384.86337	-1729.19971										-129.60669	83.73119	-1791.89136	-68.80614	739.83942	-1628.57715				
